<?xml version="1.0" encoding="utf-8"?>
<?xml-stylesheet type="text/xsl" href="rss1.xsl"?>
<rss version="2.0" xmlns:atom="http://www.w3.org/2005/Atom" xmlns:content="http://purl.org/rss/1.0/modules/content/" xmlns:dc="http://purl.org/dc/elements/1.1/" xmlns:media="http://search.yahoo.com/mrss/">
<channel>
 <title>Getty</title>
 <link>http://www.gettyimg.com/</link>
 <atom:link href="http://www.gettyimg.com/" rel="self" type="application/rss+xml" />

 
                <item>
                <title><![CDATA[【HD Live Performances】HDTV - Billie.Eilish.Lowlands.2023.1080p.HDTV.AAC2.0.HEVC-UGDV]]></title>
                <link><![CDATA[https://sharemania.us/threads/billie-eilish-lowlands-2023-1080p-hdtv-aac2-0-hevc-ugdv.227233/]]></link>
                <description><![CDATA[<article>
<blockquote class="messageText SelectQuoteContainer ugc baseHtml">
<img src="https://i.imgur.com/CTc74rR.jpg" class="bbCodeImage LbImage" alt="[​IMG]" data-url="https://i.imgur.com/CTc74rR.jpg" style=""><br>
<br>
<div class="ToggleTriggerAnchor bbCodeSpoilerContainer">
<button type="button" class="button bbCodeSpoilerButton ToggleTrigger Tooltip JsOnly" data-target="> .SpoilerTarget"><span>Spoiler: <span class="SpoilerTitle">MediaInfo</span></span></button>
<div class="SpoilerTarget bbCodeSpoilerText">General<br>
Unique ID : 70224953110897017935994172891880854274 (0x34D4D581485B71136445D23B89BD9302)<br>
Complete name : D:\mi\Lowlands.2023.Billie.Eilish.1080p.HDTV.AAC2.0.HEVC-UGDV\Billie.Eilish.Lowlands.2023.1080p.HDTV.AAC2.0.HEVC-UGDV.mkv<br>
Format : Matroska<br>
Format version : Version 4<br>
File size : 1.89 GiB<br>
Duration : 1 h 19 min<br>
Overall bit rate : 3 399 kb/s<br>
Encoded date : UTC 2023-08-24 15:40:12<br>
Writing application : mkvmerge v79.0 ('Funeral Pyres') 64-bit<br>
Writing library : libebml v1.4.4 + libmatroska v1.7.1<br>
<br>
Video<br>
ID : 1<br>
Format : HEVC<br>
Format/Info : High Efficiency Video Coding<br>
Format profile : Main@L4.1@Main<br>
Codec ID : V_MPEGH/ISO/HEVC<br>
Duration : 1 h 19 min<br>
Bit rate : 3 300 kb/s<br>
Width : 1 920 pixels<br>
Height : 1 080 pixels<br>
Display aspect ratio : 16:9<br>
Frame rate mode : Constant<br>
Frame rate : 50.000 FPS<br>
Color space : YUV<br>
Chroma subsampling : 4:2:0 (Type 0)<br>
Bit depth : 8 bits<br>
Bits/(Pixel*Frame) : 0.032<br>
Stream size : 1.83 GiB (97%)<br>
Default : No<br>
Forced : No<br>
Color range : Limited<br>
Color primaries : BT.709<br>
Transfer characteristics : BT.709<br>
Matrix coefficients : BT.709<br>
<br>
Audio<br>
ID : 2<br>
Format : AAC LC SBR<br>
Format/Info : Advanced Audio Codec Low Complexity with Spectral Band Replication<br>
Commercial name : HE-AAC<br>
Format settings : Implicit<br>
Codec ID : A_AAC-2<br>
Duration : 1 h 19 min<br>
Bit rate : 96.0 kb/s<br>
Channel(s) : 2 channels<br>
Channel layout : L R<br>
Sampling rate : 48.0 kHz<br>
Frame rate : 23.438 FPS (2048 SPF)<br>
Compression mode : Lossy<br>
Delay relative to video : 213 ms<br>
Stream size : 54.7 MiB (3%)<br>
Language : Dutch<br>
Default : Yes<br>
Forced : No</div>
</div><br>
<div class="bbCodeBlock bbCodeVfcHH HiddenContent">
<div class="attribution type">Hidden Content:</div>
<blockquote>You must either reply or click 'Like' to see the hidden information contained here.</blockquote>
</div>Capper: UGDV
<div class="messageTextEndMarker">&nbsp;</div>
</blockquote>
</article>]]></description>
                <author><![CDATA[mariellisaa]]></author>
                </item>

                
                <item>
                <title><![CDATA[【Singles (lossless)】FLAC - Switchfoot &amp; Jonas Brothers - Beautiful Letdown (Jonas Brothers Version) [Amazon 24bit/ 48Khz]]]></title>
                <link><![CDATA[https://sharemania.us/threads/switchfoot-jonas-brothers-beautiful-letdown-jonas-brothers-version-amazon-24bit-48khz.227232/]]></link>
                <description><![CDATA[<article>
<blockquote class="messageText SelectQuoteContainer ugc baseHtml">
<div style="text-align: center"><img src="https://i.scdn.co/image/ab67616d00001e0226ffda6f3c21f4796442ee71" class="bbCodeImage LbImage" alt="[​IMG]" data-url="https://i.scdn.co/image/ab67616d00001e0226ffda6f3c21f4796442ee71" style=""><br>
01 Beautiful Letdown (Jonas Brothers Version)<br>
<br>
<div class="bbCodeBlock bbCodeVfcHH HiddenContent">
<div class="attribution type">Hidden Content:</div>
<blockquote>You must either reply or click 'Like' to see the hidden information contained here.</blockquote>
</div>POP - 2023 - 4:52<br>
<br>
℗ 2023 lowercase people records<br>
<br>
​</div>
<div class="messageTextEndMarker">&nbsp;</div>
</blockquote>
</article>]]></description>
                <author><![CDATA[curtisrice04]]></author>
                </item>

                </channel></rss>